<svg width="20" height="20" viewBox="0 0 20 20" fill="none" xmlns="http://www.w3.org/2000/svg">
<path d="M20 10.2222C20 9.39995 19.9319 8.79995 19.7846 8.17773H10.2041V11.8888H15.8276C15.7143 12.8111 15.1021 14.1999 13.7415 15.1332L13.7224 15.2575L16.7516 17.5572L16.9615 17.5777C18.8889 15.8333 20 13.2666 20 10.2222Z" fill="#4285F4"/>
<path d="M10.2041 20C12.9591 20 15.272 19.1111 16.9614 17.5778L13.7414 15.1333C12.8798 15.7222 11.7233 16.1333 10.2041 16.1333C7.50566 16.1333 5.21543 14.3889 4.39902 11.9778L4.27935 11.9877L1.12957 14.3766L1.08838 14.4889C2.76637 17.7555 6.21309 20 10.2041 20Z" fill="#34A853"/>
<path d="M4.39905 11.9778C4.18364 11.3555 4.05897 10.6888 4.05897 9.99997C4.05897 9.31104 4.18364 8.6444 4.38772 8.02219L4.38201 7.88967L1.19276 5.4624L1.08841 5.51104C0.39683 6.86662 0 8.38887 0 9.99997C0 11.6111 0.39683 13.1333 1.08841 14.4888L4.39905 11.9778Z" fill="#FBBC05"/>
<path d="M10.2041 3.86664C12.1201 3.86664 13.4126 4.67775 14.1496 5.35557L17.0294 2.6C15.2608 0.988893 12.9591 0 10.2041 0C6.21309 0 2.76637 2.24443 1.08838 5.51107L4.38769 8.02221C5.21543 5.61111 7.50566 3.86664 10.2041 3.86664Z" fill="#EB4335"/>
</svg>
