<svg width="20" height="20" viewBox="0 0 20 20" fill="none" xmlns="http://www.w3.org/2000/svg">
<path d="M7.61218 19.8442C9.36078 19.1073 8.97766 17.0755 8.09353 15.7912C7.21923 14.4752 6.01093 13.5699 4.7928 12.6961C3.92366 12.109 3.14763 11.3769 2.49407 10.5274C2.21901 10.18 1.65907 9.53786 2.22884 9.41153C2.80843 9.2852 3.81044 9.89579 4.32127 10.1274C5.21522 10.5274 6.09934 10.9906 6.92452 11.5381L7.91671 9.74841C6.38423 8.66408 4.4195 7.70609 2.59231 7.42185C1.55101 7.25341 0.450763 7.48501 0.0971127 8.69567C-0.217243 9.73788 0.283761 10.7906 0.853531 11.6118C2.19937 13.5383 4.2918 14.4647 5.85375 16.128C6.18775 16.4754 6.59052 16.886 6.78699 17.3703C6.99329 17.8335 6.94417 17.8651 6.48246 17.8651C5.26433 17.8651 3.74167 16.8439 2.74949 16.1701L1.7573 17.9598C3.26032 18.9494 5.77516 20.4969 7.61218 19.8442ZM16.6597 5.61113L11.0897 11.5802H8.84013V9.1694L14.4101 3.18981L16.6597 5.61113ZM19.9998 4.78999C19.9899 5.10581 19.6854 5.43216 19.371 5.75851L16.8955 8.42195L16.0408 7.50606L18.595 4.77946L18.0154 4.15834L17.3572 4.86368L15.1076 2.45289L17.2197 0.189494C17.4554 -0.0631646 17.8386 -0.0631646 18.0645 0.189494L19.4693 1.69492C19.705 1.92652 19.705 2.34762 19.4693 2.60028C19.263 2.82135 19.0665 3.0319 19.0665 3.24245C19.0469 3.453 19.2433 3.6846 19.4398 3.86357C19.7247 4.17939 20.0096 4.47416 19.9998 4.78999Z" fill="#404B7C"/>
</svg>
