<svg width="21" height="20" viewBox="0 0 21 20" fill="none" xmlns="http://www.w3.org/2000/svg">
<path fill-rule="evenodd" clip-rule="evenodd" d="M17.5 0C18.2956 0 19.0587 0.337102 19.6213 0.937146C20.1839 1.53719 20.5 2.35103 20.5 3.19962V13.865C20.5 14.7136 20.1839 15.5274 19.6213 16.1275C19.0587 16.7275 18.2956 17.0646 17.5 17.0646H5.833L2.5 19.731C1.676 20.3901 0.5 19.763 0.5 18.6644V3.19962C0.5 2.35103 0.816071 1.53719 1.37868 0.937146C1.94129 0.337102 2.70435 0 3.5 0H17.5ZM9.5 9.59885H6.5C6.23478 9.59885 5.98043 9.71122 5.79289 9.91123C5.60536 10.1112 5.5 10.3825 5.5 10.6654C5.5 10.9483 5.60536 11.2195 5.79289 11.4195C5.98043 11.6196 6.23478 11.7319 6.5 11.7319H9.5C9.76522 11.7319 10.0196 11.6196 10.2071 11.4195C10.3946 11.2195 10.5 10.9483 10.5 10.6654C10.5 10.3825 10.3946 10.1112 10.2071 9.91123C10.0196 9.71122 9.76522 9.59885 9.5 9.59885ZM14.5 5.33269H6.5C6.24512 5.333 5.99997 5.43709 5.81463 5.6237C5.6293 5.81031 5.51777 6.06536 5.50283 6.33673C5.48789 6.6081 5.57067 6.87531 5.73426 7.08377C5.89786 7.29223 6.1299 7.4262 6.383 7.45831L6.5 7.46577H14.5C14.7549 7.46547 15 7.36138 15.1854 7.17477C15.3707 6.98816 15.4822 6.73311 15.4972 6.46174C15.5121 6.19037 15.4293 5.92315 15.2657 5.71469C15.1021 5.50624 14.8701 5.37227 14.617 5.34016L14.5 5.33269Z" fill="#404B7C"/>
</svg>
